<svg width="143" height="38" viewBox="0 0 143 38" fill="none" xmlns="http://www.w3.org/2000/svg">
<circle cx="19" cy="19" r="19" fill="#CFD4ED"/>
<path d="M16.4677 12.9942V19.8422C16.4677 20.6315 16.6224 21.2235 16.9317 21.6182C17.241 22.0022 17.7584 22.1942 18.4837 22.1942C19.209 22.1942 19.7264 22.0022 20.0357 21.6182C20.345 21.2235 20.4997 20.6315 20.4997 19.8422V12.9942H22.8677V19.5862C22.8677 20.4075 22.7877 21.1222 22.6277 21.7302C22.4784 22.3275 22.2277 22.8235 21.8757 23.2182C21.5237 23.6022 21.0704 23.8902 20.5157 24.0822C19.961 24.2635 19.2837 24.3542 18.4837 24.3542C17.6837 24.3542 17.0064 24.2635 16.4517 24.0822C15.897 23.8902 15.4437 23.6022 15.0917 23.2182C14.7397 22.8235 14.4837 22.3275 14.3237 21.7302C14.1744 21.1222 14.0997 20.4075 14.0997 19.5862V12.9942H16.4677Z" fill="#151515"/>
<path d="M48.6766 14.228V20.276C48.6766 21.2093 48.8492 21.9187 49.1946 22.404C49.5399 22.88 50.1466 23.118 51.0146 23.118C51.8826 23.118 52.4892 22.88 52.8346 22.404C53.1799 21.9187 53.3526 21.2093 53.3526 20.276V14.228H54.5286V19.996C54.5286 20.7053 54.4632 21.3213 54.3326 21.844C54.2112 22.3667 54.0106 22.8007 53.7306 23.146C53.4506 23.4913 53.0819 23.748 52.6246 23.916C52.1766 24.084 51.6259 24.168 50.9726 24.168C50.3192 24.168 49.7686 24.084 49.3206 23.916C48.8819 23.748 48.5272 23.4913 48.2566 23.146C47.9859 22.8007 47.7899 22.3667 47.6686 21.844C47.5566 21.3213 47.5006 20.7053 47.5006 19.996V14.228H48.6766ZM56.9468 24V16.776H58.0668V17.952H58.1228C58.3002 17.5413 58.5475 17.2147 58.8648 16.972C59.1915 16.7293 59.6255 16.608 60.1668 16.608C60.9135 16.608 61.5015 16.8507 61.9308 17.336C62.3695 17.812 62.5888 18.4887 62.5888 19.366V24H61.4688V19.562C61.4688 18.2647 60.9228 17.616 59.8308 17.616C59.6068 17.616 59.3875 17.644 59.1728 17.7C58.9675 17.756 58.7808 17.84 58.6128 17.952C58.4448 18.064 58.3095 18.2087 58.2068 18.386C58.1135 18.554 58.0668 18.7547 58.0668 18.988V24H56.9468ZM65.4639 15.082C65.2212 15.082 65.0439 15.026 64.9319 14.914C64.8292 14.7927 64.7779 14.6387 64.7779 14.452V14.27C64.7779 14.0833 64.8292 13.934 64.9319 13.822C65.0439 13.7007 65.2212 13.64 65.4639 13.64C65.7065 13.64 65.8792 13.7007 65.9819 13.822C66.0939 13.934 66.1499 14.0833 66.1499 14.27V14.452C66.1499 14.6387 66.0939 14.7927 65.9819 14.914C65.8792 15.026 65.7065 15.082 65.4639 15.082ZM64.9039 16.776H66.0239V24H64.9039V16.776ZM70.5739 24.168C69.9019 24.168 69.3372 24.042 68.8799 23.79C68.4319 23.5287 68.0445 23.1833 67.7179 22.754L68.5159 22.11C68.7959 22.4647 69.1085 22.74 69.4539 22.936C69.7992 23.1227 70.2005 23.216 70.6579 23.216C71.1339 23.216 71.5025 23.1133 71.7639 22.908C72.0345 22.7027 72.1699 22.4133 72.1699 22.04C72.1699 21.76 72.0765 21.522 71.8899 21.326C71.7125 21.1207 71.3859 20.9807 70.9099 20.906L70.3359 20.822C69.9999 20.7753 69.6919 20.7053 69.4119 20.612C69.1319 20.5093 68.8845 20.3787 68.6699 20.22C68.4645 20.052 68.3012 19.8467 68.1799 19.604C68.0679 19.3613 68.0119 19.072 68.0119 18.736C68.0119 18.3813 68.0772 18.0733 68.2079 17.812C68.3385 17.5413 68.5159 17.3173 68.7399 17.14C68.9732 16.9627 69.2485 16.832 69.5659 16.748C69.8832 16.6547 70.2239 16.608 70.5879 16.608C71.1759 16.608 71.6659 16.7107 72.0579 16.916C72.4592 17.1213 72.8092 17.406 73.1079 17.77L72.3659 18.442C72.2072 18.218 71.9739 18.0173 71.6659 17.84C71.3579 17.6533 70.9705 17.56 70.5039 17.56C70.0372 17.56 69.6825 17.6627 69.4399 17.868C69.2065 18.064 69.0899 18.3347 69.0899 18.68C69.0899 19.0347 69.2065 19.2913 69.4399 19.45C69.6825 19.6087 70.0279 19.7253 70.4759 19.8L71.0359 19.884C71.8385 20.0053 72.4079 20.2387 72.7439 20.584C73.0799 20.92 73.2479 21.3633 73.2479 21.914C73.2479 22.614 73.0099 23.1647 72.5339 23.566C72.0579 23.9673 71.4045 24.168 70.5739 24.168ZM78.6467 14.228H82.6647C83.4767 14.228 84.1114 14.4567 84.5687 14.914C85.0354 15.3713 85.2687 15.9827 85.2687 16.748C85.2687 17.112 85.2174 17.42 85.1147 17.672C85.0121 17.924 84.8814 18.134 84.7227 18.302C84.5641 18.4607 84.3914 18.582 84.2047 18.666C84.0181 18.7407 83.8454 18.792 83.6867 18.82V18.904C83.8641 18.9133 84.0601 18.96 84.2747 19.044C84.4987 19.128 84.7087 19.2633 84.9047 19.45C85.1007 19.6273 85.2641 19.8607 85.3947 20.15C85.5347 20.43 85.6047 20.7707 85.6047 21.172C85.6047 21.5733 85.5394 21.9467 85.4087 22.292C85.2874 22.6373 85.1147 22.936 84.8907 23.188C84.6667 23.44 84.4007 23.6407 84.0927 23.79C83.7847 23.93 83.4487 24 83.0847 24H78.6467V14.228ZM79.8227 22.964H82.7207C83.2247 22.964 83.6214 22.838 83.9107 22.586C84.2001 22.3247 84.3447 21.9467 84.3447 21.452V20.976C84.3447 20.4813 84.2001 20.108 83.9107 19.856C83.6214 19.5947 83.2247 19.464 82.7207 19.464H79.8227V22.964ZM79.8227 18.456H82.5247C82.9914 18.456 83.3554 18.3393 83.6167 18.106C83.8781 17.8727 84.0087 17.5367 84.0087 17.098V16.622C84.0087 16.1833 83.8781 15.8473 83.6167 15.614C83.3554 15.3807 82.9914 15.264 82.5247 15.264H79.8227V18.456ZM92.9312 24C92.5112 24 92.2079 23.888 92.0212 23.664C91.8439 23.44 91.7319 23.16 91.6852 22.824H91.6152C91.4565 23.272 91.1952 23.608 90.8312 23.832C90.4672 24.056 90.0332 24.168 89.5292 24.168C88.7639 24.168 88.1665 23.972 87.7372 23.58C87.3172 23.188 87.1072 22.656 87.1072 21.984C87.1072 21.3027 87.3545 20.78 87.8492 20.416C88.3532 20.052 89.1325 19.87 90.1872 19.87H91.6152V19.156C91.6152 18.6427 91.4752 18.2507 91.1952 17.98C90.9152 17.7093 90.4859 17.574 89.9072 17.574C89.4685 17.574 89.0999 17.672 88.8012 17.868C88.5119 18.064 88.2692 18.3253 88.0732 18.652L87.4012 18.022C87.5972 17.63 87.9099 17.2987 88.3392 17.028C88.7685 16.748 89.3099 16.608 89.9632 16.608C90.8405 16.608 91.5219 16.8227 92.0072 17.252C92.4925 17.6813 92.7352 18.2787 92.7352 19.044V23.02H93.5612V24H92.9312ZM89.7112 23.216C89.9912 23.216 90.2479 23.1833 90.4812 23.118C90.7145 23.0527 90.9152 22.9593 91.0832 22.838C91.2512 22.7167 91.3819 22.5767 91.4752 22.418C91.5685 22.2593 91.6152 22.0867 91.6152 21.9V20.71H90.1312C89.4872 20.71 89.0159 20.8033 88.7172 20.99C88.4279 21.1767 88.2832 21.4473 88.2832 21.802V22.096C88.2832 22.4507 88.4092 22.726 88.6612 22.922C88.9225 23.118 89.2725 23.216 89.7112 23.216ZM99.7797 22.824H99.7237C99.2851 23.72 98.5804 24.168 97.6097 24.168C97.1617 24.168 96.7557 24.0793 96.3917 23.902C96.0277 23.7247 95.7151 23.4727 95.4537 23.146C95.2017 22.8193 95.0057 22.4227 94.8657 21.956C94.7351 21.4893 94.6697 20.9667 94.6697 20.388C94.6697 19.8093 94.7351 19.2867 94.8657 18.82C95.0057 18.3533 95.2017 17.9567 95.4537 17.63C95.7151 17.3033 96.0277 17.0513 96.3917 16.874C96.7557 16.6967 97.1617 16.608 97.6097 16.608C98.1137 16.608 98.5431 16.72 98.8977 16.944C99.2617 17.1587 99.5371 17.4947 99.7237 17.952H99.7797V13.64H100.9V24H99.7797V22.824ZM97.9177 23.16C98.1697 23.16 98.4077 23.1273 98.6317 23.062C98.8651 22.9967 99.0657 22.9033 99.2337 22.782C99.4017 22.6513 99.5324 22.4973 99.6257 22.32C99.7284 22.1333 99.7797 21.9233 99.7797 21.69V19.002C99.7797 18.806 99.7284 18.624 99.6257 18.456C99.5324 18.2787 99.4017 18.1293 99.2337 18.008C99.0657 17.8867 98.8651 17.7933 98.6317 17.728C98.4077 17.6533 98.1697 17.616 97.9177 17.616C97.2831 17.616 96.7837 17.8167 96.4197 18.218C96.0557 18.61 95.8737 19.128 95.8737 19.772V21.004C95.8737 21.648 96.0557 22.1707 96.4197 22.572C96.7837 22.964 97.2831 23.16 97.9177 23.16ZM103.281 24V16.776H104.401V18.106H104.471C104.601 17.7607 104.835 17.4527 105.171 17.182C105.507 16.9113 105.969 16.776 106.557 16.776H106.991V17.896H106.333C105.726 17.896 105.25 18.0127 104.905 18.246C104.569 18.47 104.401 18.7547 104.401 19.1V24H103.281ZM108.981 15.082C108.739 15.082 108.561 15.026 108.449 14.914C108.347 14.7927 108.295 14.6387 108.295 14.452V14.27C108.295 14.0833 108.347 13.934 108.449 13.822C108.561 13.7007 108.739 13.64 108.981 13.64C109.224 13.64 109.397 13.7007 109.499 13.822C109.611 13.934 109.667 14.0833 109.667 14.27V14.452C109.667 14.6387 109.611 14.7927 109.499 14.914C109.397 15.026 109.224 15.082 108.981 15.082ZM108.421 16.776H109.541V24H108.421V16.776Z" fill="#151515"/>
<path d="M125 16L131 22L137 16" stroke="#151515" stroke-width="2" stroke-linecap="round" stroke-linejoin="round"/>
</svg>
